HIERARCHY
ROOT Hips
{
 OFFSET 0.000000 0.000000 0.000000
 CHANNELS 6 Xposition Yposition Zposition Yrotation Xrotation Zrotation
 JOINT Chest
 {
  OFFSET 0.000000 9.585900 0.002600
  CHANNELS 3 Yrotation Xrotation Zrotation
  JOINT Chest2
  {
   OFFSET 0.000000 9.601200 -0.005300
   CHANNELS 3 Yrotation Xrotation Zrotation
   JOINT Chest3
   {
    OFFSET 0.000000 9.561800 0.000000
    CHANNELS 3 Yrotation Xrotation Zrotation
    JOINT Chest4
    {
     OFFSET 0.000000 9.552100 0.000000
     CHANNELS 3 Yrotation Xrotation Zrotation
     JOINT Neck
     {
      OFFSET 0.000000 14.453000 0.000000
      CHANNELS 3 Yrotation Xrotation Zrotation
      JOINT Head
      {
       OFFSET 0.000000 8.936500 -0.011300
       CHANNELS 3 Yrotation Xrotation Zrotation
       End Site
       {
        OFFSET 0.000000 17.073600 -0.006000
       }
      }
     }
     JOINT RightCollar
     {
      OFFSET -2.921100 9.558500 0.000000
      CHANNELS 3 Yrotation Xrotation Zrotation
      JOINT RightShoulder
      {
       OFFSET -13.519700 0.000000 0.000000
       CHANNELS 3 Yrotation Xrotation Zrotation
       JOINT RightElbow
       {
        OFFSET 0.000000 -29.696600 0.000000
        CHANNELS 3 Yrotation Xrotation Zrotation
        JOINT RightWrist
        {
         OFFSET 0.000000 -24.004700 0.000000
         CHANNELS 3 Yrotation Xrotation Zrotation
         End Site
         {
          OFFSET 0.000000 -17.728500 0.000000
         }
        }
       }
      }
     }
     JOINT LeftCollar
     {
      OFFSET 2.921100 9.558500 0.000000
      CHANNELS 3 Yrotation Xrotation Zrotation
      JOINT LeftShoulder
      {
       OFFSET 13.519700 0.000000 0.000000
       CHANNELS 3 Yrotation Xrotation Zrotation
       JOINT LeftElbow
       {
        OFFSET 0.000000 -29.696600 0.000000
        CHANNELS 3 Yrotation Xrotation Zrotation
        JOINT LeftWrist
        {
         OFFSET 0.000000 -24.004700 0.000000
         CHANNELS 3 Yrotation Xrotation Zrotation
         End Site
         {
          OFFSET 0.000000 -17.728500 0.000000
         }
        }
       }
      }
     }
    }
   }
  }
 }
 JOINT RightHip
 {
  OFFSET -7.771700 -0.012900 -0.001300
  CHANNELS 3 Yrotation Xrotation Zrotation
  JOINT RightKnee
  {
   OFFSET 0.000000 -40.869800 0.001200
   CHANNELS 3 Yrotation Xrotation Zrotation
   JOINT RightAnkle
   {
    OFFSET 0.000000 -39.717900 0.002100
    CHANNELS 3 Yrotation Xrotation Zrotation
    JOINT RightToe
    {
     OFFSET 0.000000 -4.965400 11.033500
     CHANNELS 3 Yrotation Xrotation Zrotation
     End Site
     {
      OFFSET 0.000000 -1.423100 5.872300
     }
    }
   }
  }
 }
 JOINT LeftHip
 {
  OFFSET 7.771700 -0.012900 -0.001300
  CHANNELS 3 Yrotation Xrotation Zrotation
  JOINT LeftKnee
  {
   OFFSET 0.000000 -40.869800 0.001200
   CHANNELS 3 Yrotation Xrotation Zrotation
   JOINT LeftAnkle
   {
    OFFSET 0.000000 -39.717900 0.002100
    CHANNELS 3 Yrotation Xrotation Zrotation
    JOINT LeftToe
    {
     OFFSET 0.000000 -4.965400 11.033500
     CHANNELS 3 Yrotation Xrotation Zrotation
     End Site
     {
      OFFSET 0.000000 -1.423100 5.872300
     }
    }
   }
  }
 }
}
MOTION
Frames: 5
Frame Time: 0.008333
0.000000 85.388000 0.000000 0.000000 -5.767877 0.000000 0.000000 11.653817 0.000000 0.000000 -5.885947 0.000000 0.000000 -0.000000 0.000000 0.000000 -0.000000 0.000000 0.000000 12.528835 0.000000 0.000000 0.711642 0.000000 0.000000 -0.000000 0.000000 0.000000 0.000000 -90.000000 0.000000 -2.309062 0.000000 0.000000 2.309062 0.000000 0.000000 -0.000000 0.000000 0.000000 -0.000000 90.000000 0.000000 -2.309062 0.000000 0.000000 2.309062 0.000000 0.000000 8.520406 0.000000 0.000000 1.905762 0.000000 -0.000000 -4.658285 0.000000 0.000000 -0.000000 0.000000 0.000000 8.520406 0.000000 0.000000 1.905762 0.000000 -0.000000 -4.658285 0.000000 0.000000 -0.000000 0.000000
-11.788731 57.596875 42.803949 -174.221843 -29.868899 -0.128459 -1.950251 19.491147 5.137476 -0.360580 2.394689 0.470047 -0.582233 3.934327 0.764525 -2.153434 16.739012 3.034981 3.431147 18.735063 -5.460600 7.995836 -0.476591 -11.079857 4.200975 -1.589035 -2.425489 8.722835 -12.704743 -13.236962 121.730236 -74.737760 -90.410819 13.580350 -18.197491 -47.575077 -8.607961 -3.500533 -3.651301 0.015381 -11.339156 -3.775104 -96.599471 -69.223723 66.045393 -9.154523 -10.712052 23.186069 9.686545 -41.007391 -9.180029 -2.812292 68.301661 -5.469342 5.102574 4.959920 10.115470 -0.165919 0.113820 -0.088837 -10.745112 -49.247772 -2.116106 27.223089 70.286876 26.450605 -16.529261 25.341085 -2.629539 0.603903 -14.946166 -3.910695
-11.786252 57.594018 42.810575 -174.242410 -29.873249 -0.185145 -1.978895 19.465478 5.219461 -0.365746 2.393382 0.474905 -0.590597 3.932153 0.772458 -2.185922 16.729343 3.064848 3.371824 18.764624 -5.437771 7.877552 -0.431853 -11.017124 4.211803 -1.582253 -2.447559 8.699621 -12.676903 -13.247024 122.749052 -74.677867 -91.303682 13.568386 -18.334468 -47.668650 -8.584036 -3.504155 -3.676279 0.044819 -11.287697 -3.786345 -97.464226 -69.400565 66.876454 -9.004534 -11.314488 23.696485 9.700799 -40.972500 -9.152495 -2.832650 68.223101 -5.384273 5.077819 4.980116 10.051116 -0.133683 0.143520 -0.071442 -10.820868 -49.240559 -2.018014 27.238271 70.289250 26.471341 -16.492745 25.368405 -2.613763 0.587596 -14.983167 -3.931540
-11.791075 57.592330 42.816461 -174.275839 -29.896503 -0.195396 -2.006751 19.458799 5.258670 -0.370953 2.392380 0.479763 -0.599066 3.930453 0.780294 -2.218529 16.720507 3.094267 3.286685 18.785874 -5.419026 7.714184 -0.404970 -10.954754 4.219522 -1.576996 -2.467527 8.734791 -12.635161 -13.293997 123.845769 -74.606616 -92.316401 13.551934 -18.445400 -47.762742 -8.562468 -3.509872 -3.696853 0.066573 -11.240698 -3.778626 -98.195971 -69.664561 67.546410 -8.824900 -11.963620 24.323808 9.730381 -40.946825 -9.160224 -2.808850 68.202497 -5.320145 5.086938 4.991134 10.041039 -0.131948 0.146161 -0.068716 -10.832302 -49.221881 -1.986901 27.235925 70.295788 26.477879 -16.462488 25.403597 -2.609001 0.580764 -15.030294 -3.946637
-11.798551 57.589649 42.824980 -174.285231 -29.909957 -0.197938 -2.062107 19.442510 5.276478 -0.375762 2.391342 0.484666 -0.606868 3.928733 0.788269 -2.248273 16.711734 3.124683 3.173811 18.802712 -5.404840 7.501888 -0.388797 -10.892452 4.226518 -1.569670 -2.488473 8.699233 -12.641429 -13.315397 124.945095 -74.509649 -93.240762 13.516655 -18.528919 -47.846071 -8.546305 -3.516229 -3.717725 0.083603 -11.200962 -3.744246 -98.780318 -70.020299 68.046061 -8.623950 -12.616585 25.040561 9.754243 -40.928998 -9.190289 -2.765929 68.185983 -5.252593 5.091355 4.996782 10.043523 -0.132498 0.145743 -0.066254 -10.838325 -49.214590 -1.995249 27.229404 70.295733 26.487932 -16.412544 25.425219 -2.594314 0.573217 -15.091718 -3.971390
